<svg xmlns="http://www.w3.org/2000/svg" xmlns:xlink="http://www.w3.org/1999/xlink" width="40" zoomAndPan="magnify" viewBox="0 0 30 30.000001" height="40" preserveAspectRatio="xMidYMid meet" version="1.0"><defs><clipPath id="1dd520d4f3"><path d="M 0.484375 0 L 8.441406 0 L 8.441406 7.957031 L 0.484375 7.957031 Z M 0.484375 0 " clip-rule="nonzero"/></clipPath><clipPath id="b4803dbd95"><path d="M 0.484375 21.136719 L 8.441406 21.136719 L 8.441406 29.03125 L 0.484375 29.03125 Z M 0.484375 21.136719 " clip-rule="nonzero"/></clipPath><clipPath id="6d9b7d84a2"><path d="M 0.484375 10.554688 L 8.441406 10.554688 L 8.441406 18.511719 L 0.484375 18.511719 Z M 0.484375 10.554688 " clip-rule="nonzero"/></clipPath><clipPath id="db54ad012d"><path d="M 10.082031 3.210938 L 29.515625 3.210938 L 29.515625 4.980469 L 10.082031 4.980469 Z M 10.082031 3.210938 " clip-rule="nonzero"/></clipPath><clipPath id="5dab8de6a4"><path d="M 10.082031 13.765625 L 29.515625 13.765625 L 29.515625 15.53125 L 10.082031 15.53125 Z M 10.082031 13.765625 " clip-rule="nonzero"/></clipPath><clipPath id="34889d91ff"><path d="M 10.585938 24.695312 L 29.457031 24.695312 L 29.457031 26.144531 L 10.585938 26.144531 Z M 10.585938 24.695312 " clip-rule="nonzero"/></clipPath></defs><g clip-path="url(#1dd520d4f3)"><path fill="#ffffff" d="M 8.371094 3.945312 C 8.371094 4.203125 8.347656 4.460938 8.296875 4.714844 C 8.246094 4.96875 8.171875 5.214844 8.070312 5.453125 C 7.972656 5.691406 7.851562 5.921875 7.707031 6.136719 C 7.5625 6.351562 7.398438 6.550781 7.21875 6.734375 C 7.035156 6.917969 6.835938 7.082031 6.621094 7.222656 C 6.402344 7.367188 6.175781 7.488281 5.9375 7.589844 C 5.699219 7.6875 5.453125 7.761719 5.199219 7.8125 C 4.941406 7.863281 4.6875 7.890625 4.429688 7.890625 C 4.167969 7.890625 3.914062 7.863281 3.660156 7.8125 C 3.402344 7.761719 3.15625 7.6875 2.917969 7.589844 C 2.679688 7.488281 2.453125 7.367188 2.238281 7.222656 C 2.019531 7.082031 1.820312 6.917969 1.640625 6.734375 C 1.457031 6.550781 1.292969 6.351562 1.148438 6.136719 C 1.003906 5.921875 0.882812 5.691406 0.785156 5.453125 C 0.683594 5.214844 0.609375 4.96875 0.558594 4.714844 C 0.507812 4.460938 0.484375 4.203125 0.484375 3.945312 C 0.484375 3.683594 0.507812 3.429688 0.558594 3.175781 C 0.609375 2.921875 0.683594 2.675781 0.785156 2.433594 C 0.882812 2.195312 1.003906 1.96875 1.148438 1.753906 C 1.292969 1.539062 1.457031 1.339844 1.640625 1.15625 C 1.820312 0.972656 2.019531 0.808594 2.238281 0.664062 C 2.453125 0.519531 2.679688 0.398438 2.917969 0.300781 C 3.15625 0.199219 3.402344 0.125 3.660156 0.0742188 C 3.914062 0.0234375 4.167969 0 4.429688 0 C 4.6875 0 4.941406 0.0234375 5.199219 0.0742188 C 5.453125 0.125 5.699219 0.199219 5.9375 0.300781 C 6.175781 0.398438 6.402344 0.519531 6.621094 0.664062 C 6.835938 0.808594 7.035156 0.972656 7.21875 1.15625 C 7.398438 1.339844 7.5625 1.539062 7.707031 1.753906 C 7.851562 1.96875 7.972656 2.195312 8.070312 2.433594 C 8.171875 2.675781 8.246094 2.921875 8.296875 3.175781 C 8.347656 3.429688 8.371094 3.683594 8.371094 3.945312 Z M 8.371094 3.945312 " fill-opacity="1" fill-rule="nonzero"/></g><g clip-path="url(#b4803dbd95)"><path fill="#ffffff" d="M 8.371094 25.082031 C 8.371094 25.339844 8.347656 25.597656 8.296875 25.851562 C 8.246094 26.105469 8.171875 26.351562 8.070312 26.589844 C 7.972656 26.828125 7.851562 27.058594 7.707031 27.273438 C 7.5625 27.488281 7.398438 27.6875 7.21875 27.871094 C 7.035156 28.054688 6.835938 28.21875 6.621094 28.359375 C 6.402344 28.503906 6.175781 28.625 5.9375 28.726562 C 5.699219 28.824219 5.453125 28.898438 5.199219 28.949219 C 4.941406 29 4.6875 29.027344 4.429688 29.027344 C 4.167969 29.027344 3.914062 29 3.660156 28.949219 C 3.402344 28.898438 3.15625 28.824219 2.917969 28.726562 C 2.679688 28.625 2.453125 28.503906 2.238281 28.359375 C 2.019531 28.21875 1.820312 28.054688 1.640625 27.871094 C 1.457031 27.6875 1.292969 27.488281 1.148438 27.273438 C 1.003906 27.058594 0.882812 26.828125 0.785156 26.589844 C 0.683594 26.351562 0.609375 26.105469 0.558594 25.851562 C 0.507812 25.597656 0.484375 25.339844 0.484375 25.082031 C 0.484375 24.820312 0.507812 24.566406 0.558594 24.3125 C 0.609375 24.058594 0.683594 23.8125 0.785156 23.570312 C 0.882812 23.332031 1.003906 23.105469 1.148438 22.890625 C 1.292969 22.675781 1.457031 22.476562 1.640625 22.292969 C 1.820312 22.109375 2.019531 21.945312 2.238281 21.800781 C 2.453125 21.65625 2.679688 21.535156 2.917969 21.4375 C 3.15625 21.335938 3.402344 21.261719 3.660156 21.210938 C 3.914062 21.160156 4.167969 21.136719 4.429688 21.136719 C 4.6875 21.136719 4.941406 21.160156 5.199219 21.210938 C 5.453125 21.261719 5.699219 21.335938 5.9375 21.4375 C 6.175781 21.535156 6.402344 21.65625 6.621094 21.800781 C 6.835938 21.945312 7.035156 22.109375 7.21875 22.292969 C 7.398438 22.476562 7.5625 22.675781 7.707031 22.890625 C 7.851562 23.105469 7.972656 23.332031 8.070312 23.570312 C 8.171875 23.8125 8.246094 24.058594 8.296875 24.3125 C 8.347656 24.566406 8.371094 24.820312 8.371094 25.082031 Z M 8.371094 25.082031 " fill-opacity="1" fill-rule="nonzero"/></g><g clip-path="url(#6d9b7d84a2)"><path fill="#ffffff" d="M 8.371094 14.496094 C 8.371094 14.757812 8.347656 15.011719 8.296875 15.265625 C 8.246094 15.519531 8.171875 15.769531 8.070312 16.007812 C 7.972656 16.246094 7.851562 16.472656 7.707031 16.6875 C 7.5625 16.90625 7.398438 17.105469 7.21875 17.285156 C 7.035156 17.46875 6.835938 17.632812 6.621094 17.777344 C 6.402344 17.921875 6.175781 18.042969 5.9375 18.140625 C 5.699219 18.242188 5.453125 18.316406 5.199219 18.367188 C 4.941406 18.417969 4.6875 18.441406 4.429688 18.441406 C 4.167969 18.441406 3.914062 18.417969 3.660156 18.367188 C 3.402344 18.316406 3.15625 18.242188 2.917969 18.140625 C 2.679688 18.042969 2.453125 17.921875 2.238281 17.777344 C 2.019531 17.632812 1.820312 17.46875 1.640625 17.285156 C 1.457031 17.105469 1.292969 16.90625 1.148438 16.6875 C 1.003906 16.472656 0.882812 16.246094 0.785156 16.007812 C 0.683594 15.769531 0.609375 15.519531 0.558594 15.265625 C 0.507812 15.011719 0.484375 14.757812 0.484375 14.496094 C 0.484375 14.238281 0.507812 13.980469 0.558594 13.726562 C 0.609375 13.472656 0.683594 13.226562 0.785156 12.988281 C 0.882812 12.75 1.003906 12.523438 1.148438 12.304688 C 1.292969 12.089844 1.457031 11.890625 1.640625 11.707031 C 1.820312 11.527344 2.019531 11.363281 2.238281 11.21875 C 2.453125 11.074219 2.679688 10.953125 2.917969 10.855469 C 3.15625 10.753906 3.402344 10.679688 3.660156 10.628906 C 3.914062 10.578125 4.167969 10.554688 4.429688 10.554688 C 4.6875 10.554688 4.941406 10.578125 5.199219 10.628906 C 5.453125 10.679688 5.699219 10.753906 5.9375 10.855469 C 6.175781 10.953125 6.402344 11.074219 6.621094 11.21875 C 6.835938 11.363281 7.035156 11.527344 7.21875 11.707031 C 7.398438 11.890625 7.5625 12.089844 7.707031 12.304688 C 7.851562 12.523438 7.972656 12.75 8.070312 12.988281 C 8.171875 13.226562 8.246094 13.472656 8.296875 13.726562 C 8.347656 13.980469 8.371094 14.238281 8.371094 14.496094 Z M 8.371094 14.496094 " fill-opacity="1" fill-rule="nonzero"/></g><g clip-path="url(#db54ad012d)"><path fill="#ffffff" d="M 10.082031 3.210938 L 29.105469 3.210938 L 29.105469 4.675781 L 10.082031 4.675781 Z M 10.082031 3.210938 " fill-opacity="1" fill-rule="nonzero"/></g><g clip-path="url(#5dab8de6a4)"><path fill="#ffffff" d="M 10.082031 13.765625 L 29.105469 13.765625 L 29.105469 15.226562 L 10.082031 15.226562 Z M 10.082031 13.765625 " fill-opacity="1" fill-rule="nonzero"/></g><g clip-path="url(#34889d91ff)"><path fill="#ffffff" d="M 10.585938 24.695312 L 29.105469 24.695312 L 29.105469 26.121094 L 10.585938 26.121094 Z M 10.585938 24.695312 " fill-opacity="1" fill-rule="nonzero"/></g></svg>